<svg width="16" height="12" viewBox="0 0 16 12" fill="none" xmlns="http://www.w3.org/2000/svg">
<path fill-rule="evenodd" clip-rule="evenodd" d="M1 0.25C0.585786 0.25 0.25 0.585786 0.25 1V11C0.25 11.4142 0.585786 11.75 1 11.75H15C15.4142 11.75 15.75 11.4142 15.75 11V1C15.75 0.585786 15.4142 0.25 15 0.25H1ZM1.75 2.71589V10.25H14.25V2.71591L9.80198 6.13712C9.28535 6.53455 8.65182 6.75004 8.00001 6.75004C7.3482 6.75004 6.71468 6.53455 6.19805 6.13712L1.75 2.71589ZM13.0455 1.75H2.95456L7.1126 4.94818L7.11265 4.94821C7.36706 5.14393 7.67903 5.25004 8.00001 5.25004C8.32099 5.25004 8.63297 5.14393 8.88738 4.94821L8.88743 4.94818L13.0455 1.75Z" fill="#676879"/>
</svg>
