<svg width="16" height="16" viewBox="0 0 16 16" fill="none" xmlns="http://www.w3.org/2000/svg">
<path fill-rule="evenodd" clip-rule="evenodd" d="M14.2377 0.302255C13.8835 0.218767 13.513 0.235584 13.1678 0.350815L13.1673 0.35099L1.58774 4.21048L1.58774 4.21048L1.58599 4.21106C1.27005 4.31723 0.986396 4.50219 0.761822 4.74848C0.537248 4.99476 0.379173 5.29424 0.302533 5.61861C0.225892 5.94298 0.233216 6.28153 0.323813 6.60228C0.414409 6.92304 0.585287 7.21539 0.820302 7.45174L0.821504 7.45294L3.54557 10.18L3.45407 13.5893C3.44694 13.8549 3.58079 14.1044 3.80597 14.2453C4.03115 14.3862 4.31406 14.3974 4.54974 14.2749L6.5835 13.2176L8.54435 15.1758L8.54472 15.1762C8.78091 15.4122 9.07349 15.5841 9.39472 15.6753C9.71611 15.7667 10.0555 15.7743 10.3807 15.6976C10.7059 15.6209 11.0061 15.4624 11.2528 15.237C11.4995 15.0117 11.6845 14.727 11.7903 14.4101L11.7904 14.4097L15.6466 2.83031L14.866 2.04952L14.8664 2.04923L15.6468 2.8296C15.762 2.48445 15.7788 2.11404 15.6953 1.75988C15.6118 1.40548 15.4312 1.08136 15.1737 0.823888C15.1495 0.799663 15.1247 0.776119 15.0993 0.753272C15.0901 0.744786 15.0808 0.736564 15.0714 0.72861C14.8325 0.52166 14.5466 0.375067 14.2377 0.302255ZM13.8013 0.984255L13.1678 0.350815L13.8012 0.984364L13.8013 0.984255ZM12.3292 2.21145L2.06379 5.63293L2.06316 5.63314C1.98921 5.65811 1.92281 5.70147 1.87021 5.75915C1.81747 5.817 1.78034 5.88734 1.76234 5.96352C1.74434 6.03971 1.74606 6.11922 1.76734 6.19456C1.78856 6.26969 1.82854 6.33819 1.88351 6.39363L1.88395 6.39407L4.35018 8.863L12.3292 2.21145ZM5.04458 10.237L4.98769 12.3567L6.37891 11.6334C6.66904 11.4826 7.02344 11.5371 7.25482 11.7682L9.60465 14.1148L9.60502 14.1151C9.66051 14.1706 9.72926 14.211 9.80474 14.2325C9.88023 14.2539 9.95995 14.2557 10.0363 14.2377C10.1127 14.2197 10.1832 14.1824 10.2411 14.1295C10.2991 14.0766 10.3425 14.0097 10.3674 13.9353L14.1179 2.67314L5.04458 10.237Z" fill="#676879"/>
</svg>
