<svg width="10" height="20" viewBox="0 0 10 20" fill="none" xmlns="http://www.w3.org/2000/svg">
<path fill-rule="evenodd" clip-rule="evenodd" d="M3.61555 13.743V9.26705C3.61555 8.13275 4.12718 7.45064 4.98781 7.45064C5.84845 7.45064 6.36007 8.13275 6.36007 9.26705V15.6961C6.36007 17.4866 5.33139 18.7332 3.79805 18.7332C2.2647 18.7332 1.23602 17.4866 1.23602 15.6961V5.52356C1.23602 3.06826 2.79079 1.26575 4.98781 1.26575C7.18483 1.26575 8.7396 3.06826 8.7396 5.52356V13.6616C8.7396 14.0068 9.01301 14.2866 9.35029 14.2866C9.68756 14.2866 9.96097 14.0068 9.96097 13.6616V5.52356C9.96097 2.41019 7.89562 0.0157471 4.98781 0.0157471C2.08 0.0157471 0.0146484 2.41019 0.0146484 5.52356V15.6961C0.0146484 18.1346 1.54011 19.9832 3.79805 19.9832C6.05598 19.9832 7.58144 18.1346 7.58144 15.6961V9.26705C7.58144 7.50374 6.60403 6.20064 4.98781 6.20064C3.37159 6.20064 2.39418 7.50374 2.39418 9.26705V13.743C2.39418 14.0881 2.66759 14.368 3.00487 14.368C3.34214 14.368 3.61555 14.0881 3.61555 13.743Z" fill="#676879"/>
</svg>
