<svg width="18" height="18" viewBox="0 0 18 18" fill="none" xmlns="http://www.w3.org/2000/svg">
<path fill-rule="evenodd" clip-rule="evenodd" d="M7.30035 0.864624C6.77994 0.864624 6.29477 1.08976 5.94732 1.46719C5.60179 1.84253 5.41724 2.33927 5.41724 2.84552V3.32642H3.901H1.63477C1.22055 3.32642 0.884766 3.6622 0.884766 4.07642C0.884766 4.49063 1.22055 4.82642 1.63477 4.82642H3.151V15.1545C3.151 15.6608 3.33556 16.1575 3.68109 16.5328C4.02853 16.9103 4.51371 17.1354 5.03411 17.1354H12.9659C13.4863 17.1354 13.9715 16.9103 14.3189 16.5328C14.6645 16.1575 14.849 15.6608 14.849 15.1545V4.82642H16.3652C16.7794 4.82642 17.1152 4.49063 17.1152 4.07642C17.1152 3.6622 16.7794 3.32642 16.3652 3.32642H14.099H12.5828V2.84552C12.5828 2.33927 12.3982 1.84253 12.0527 1.46719C11.7053 1.08976 11.2201 0.864624 10.6997 0.864624H7.30035ZM6.16447 4.82642C6.16539 4.82642 6.16631 4.82642 6.16724 4.82642H11.8328C11.8337 4.82642 11.8346 4.82642 11.8356 4.82642H13.349V15.1545C13.349 15.3012 13.2948 15.4306 13.2153 15.5169C13.1378 15.6012 13.0465 15.6354 12.9659 15.6354H5.03411C4.95348 15.6354 4.86223 15.6012 4.78468 15.5169C4.7052 15.4306 4.651 15.3012 4.651 15.1545V4.82642H6.16447ZM11.0828 3.32642V2.84552C11.0828 2.69887 11.0286 2.56943 10.9491 2.4831C10.8716 2.39886 10.7803 2.36462 10.6997 2.36462H7.30035C7.21972 2.36462 7.12847 2.39886 7.05091 2.4831C6.97144 2.56943 6.91724 2.69887 6.91724 2.84552V3.32642L11.0828 3.32642Z" fill="#676879"/>
</svg>
