<svg width="16" height="16" viewBox="0 0 16 16" fill="none" xmlns="http://www.w3.org/2000/svg">
<path fill-rule="evenodd" clip-rule="evenodd" d="M14.3214 1C14.3214 0.585786 13.9857 0.25 13.5714 0.25C13.1572 0.25 12.8214 0.585786 12.8214 1C12.8214 1.4073 12.6596 1.79791 12.3716 2.08591C12.0836 2.37392 11.693 2.53571 11.2857 2.53571H6.7143C5.90918 2.53571 5.13704 2.85555 4.56773 3.42485C3.99842 3.99416 3.67859 4.76631 3.67859 5.57143V6.25H1C0.585786 6.25 0.25 6.58579 0.25 7V15C0.25 15.4142 0.585786 15.75 1 15.75H15C15.4142 15.75 15.75 15.4142 15.75 15V7C15.75 6.58579 15.4142 6.25 15 6.25H5.17859V5.57143C5.17859 5.16413 5.34039 4.77352 5.62839 4.48551C5.91639 4.19751 6.30701 4.03571 6.7143 4.03571H11.2857C12.0909 4.03571 12.863 3.71588 13.4323 3.14657C14.0016 2.57727 14.3214 1.80512 14.3214 1ZM1.75 7.75V14.25H14.25V7.75H1.75ZM3.25 12C3.25 11.5858 3.58579 11.25 4 11.25H12C12.4142 11.25 12.75 11.5858 12.75 12C12.75 12.4142 12.4142 12.75 12 12.75H4C3.58579 12.75 3.25 12.4142 3.25 12Z" fill="#676879"/>
</svg>
