<svg width="20" height="19" viewBox="0 0 20 19" fill="none" xmlns="http://www.w3.org/2000/svg">
<path fill-rule="evenodd" clip-rule="evenodd" d="M6.0549 0.109009L0.416565 3.75638L4.3149 6.85317L9.9999 3.37279L6.0549 0.109009ZM0.416565 9.94918L6.0549 13.5982L9.9999 10.3336L4.3149 6.85322L0.416565 9.94918ZM13.945 0.109009L19.5833 3.75638L15.685 6.85317L9.99998 3.37279L13.945 0.109009ZM9.99998 10.3336L13.945 13.5982L19.5833 9.94918L15.685 6.85322L9.99998 10.3336ZM14.6363 14.14C14.6785 14.1117 14.7217 14.0826 14.7666 14.0536L15.4174 13.6328V15.2506L10.0124 18.6103L4.58406 15.2506V13.6328C4.60489 13.6468 5.58823 14.2826 5.59989 14.29C5.73906 14.3801 5.89739 14.4248 6.05489 14.4248C6.3646 14.4248 6.51666 14.2965 6.73781 14.1099C6.75944 14.0917 6.78173 14.0729 6.80489 14.0536L9.9999 11.4106L13.1957 14.0536C13.218 14.0722 13.2395 14.0904 13.2604 14.108C13.4822 14.2956 13.635 14.4248 13.9457 14.4248C14.2133 14.4248 14.4104 14.2921 14.6363 14.14Z" fill="#676879"/>
</svg>
