<svg width="16" height="14" viewBox="0 0 16 14" fill="none" xmlns="http://www.w3.org/2000/svg">
<path fill-rule="evenodd" clip-rule="evenodd" d="M14.812 13.4614C14.6504 13.4614 14.4996 13.4183 14.3596 13.3213L13.5409 12.7827C11.2881 11.2776 8.69395 10.4115 6.00303 10.2553C6.06205 10.5636 6.15447 10.8644 6.2803 11.1561C6.51729 11.7055 6.85123 12.1902 7.2929 12.6104C7.61607 12.9228 7.62684 13.4291 7.32522 13.7522C7.16363 13.9138 6.94818 14 6.73274 14C6.52806 14 6.33416 13.9246 6.17257 13.7738C5.58009 13.2136 5.11688 12.5457 4.79371 11.7917C4.57789 11.2881 4.43413 10.7653 4.36244 10.2297H3.50102C2.56383 10.2297 1.69126 9.86341 1.02338 9.20629C0.366261 8.54918 0 7.66584 0 6.72864C0 5.79145 0.366261 4.91888 1.02338 4.251C1.69126 3.59388 2.56383 3.22762 3.50102 3.22762L5.11688 3.22762H5.11847C8.13417 3.22731 11.0421 2.34399 13.5517 0.674569L14.3704 0.13595C14.6181 -0.0256357 14.9413 -0.0471806 15.1998 0.0928603C15.4584 0.232901 15.6307 0.502211 15.6307 0.803837V12.6535C15.6307 12.9551 15.4691 13.2244 15.1998 13.3644C15.0706 13.4291 14.9413 13.4614 14.812 13.4614ZM14.0041 11.1561C11.5588 9.63719 8.79026 8.7754 5.92481 8.63536V4.82193C8.79026 4.68189 11.5588 3.8201 14.0041 2.3012V11.1561ZM3.50102 4.84348H4.30895V8.61381H3.50102C2.99472 8.61381 2.52074 8.41991 2.16525 8.06442C1.80976 7.70893 1.61586 7.23495 1.61586 6.72864C1.61586 6.22234 1.80976 5.74836 2.16525 5.39287C2.52074 5.03738 2.99472 4.84348 3.50102 4.84348Z" fill="#676879"/>
</svg>
