<svg width="16" height="10" viewBox="0 0 16 10" fill="none" xmlns="http://www.w3.org/2000/svg">
<path d="M14.027 6.03006C14.027 5.97654 14.0347 5.92301 14.0347 5.86948C14.0347 4.66132 13.0543 3.68257 11.844 3.68257C11.3998 3.68257 10.9862 3.81256 10.6415 4.04195C10.2278 3.23142 9.37762 2.67322 8.40485 2.67322C7.01845 2.67322 5.89248 3.79726 5.89248 5.18129C5.89248 5.23482 5.89248 5.2807 5.90014 5.33422C5.84652 5.32658 5.7929 5.32658 5.73162 5.32658C4.62097 5.32658 3.72479 6.22123 3.72479 7.32998C3.72479 8.43108 4.62097 9.32573 5.72396 9.33338H5.73928H13.1155H14.4177C14.4636 9.31809 14.5019 9.29515 14.5479 9.27221C15.1147 8.98928 15.4977 8.4005 15.4977 7.7276C15.49 6.87118 14.8543 6.16005 14.027 6.03006Z" fill="#676879"/>
<path d="M5.45595 4.89838C5.60148 3.39965 6.86533 2.22972 8.40492 2.22972C9.37004 2.22972 10.2509 2.68852 10.8024 3.45318C11.1318 3.31554 11.4841 3.23907 11.8441 3.23907C11.8671 3.23907 11.8901 3.23907 11.913 3.23907C11.7445 1.61035 10.3658 0.333374 8.68833 0.333374C7.41682 0.333374 6.32149 1.0598 5.79297 2.12267C5.41765 1.87033 4.96573 1.72505 4.48317 1.72505C3.18869 1.72505 2.13931 2.77263 2.13931 4.0649C2.13931 4.24077 2.16229 4.40899 2.19293 4.56957C1.11292 4.64604 0.262695 5.54069 0.262695 6.64179C0.262695 7.78878 1.19717 8.72166 2.34612 8.72166H3.70954C3.4338 8.32404 3.2806 7.84995 3.2806 7.33763C3.2806 6.07595 4.2304 5.03602 5.45595 4.89838Z" fill="#676879"/>
</svg>
