<svg width="17" height="16" viewBox="0 0 17 16" fill="none" xmlns="http://www.w3.org/2000/svg">
<path d="M8.16856 16C7.56977 16 6.97098 15.9381 6.38252 15.8038C5.06107 15.5045 3.81187 14.854 2.78981 13.9352C1.76774 13.0267 0.983129 11.8498 0.50823 10.549C0.0333313 9.24818 -0.111203 7.8338 0.0849508 6.47105C0.281105 5.09797 0.807623 3.78684 1.61289 2.67186C2.4388 1.54656 3.52281 0.658702 4.75135 0.0702405C5.03009 -0.0536462 5.35013 -0.0123506 5.58758 0.183803C5.81471 0.379957 5.90762 0.699998 5.82503 0.989066C5.52564 2.01113 5.45337 3.09514 5.62888 4.13785C5.80439 5.19089 6.22766 6.19231 6.83677 7.03887C7.44588 7.88542 8.26147 8.58745 9.1803 9.06235C10.9457 9.97085 13.124 10.0121 14.9101 9.16559C15.1888 9.03137 15.5088 9.07267 15.7463 9.27915C15.9837 9.4753 16.0767 9.79534 15.9837 10.0844C15.5914 11.4059 14.8688 12.6241 13.8983 13.6049C12.9279 14.5856 11.7303 15.298 10.4192 15.68C9.68617 15.8968 8.93252 16 8.16856 16ZM4.00803 2.37247C3.58475 2.72348 3.20277 3.12611 2.88272 3.58036C2.222 4.48886 1.78839 5.56255 1.63353 6.67753C1.46835 7.80283 1.59224 8.95911 1.97422 10.0225C2.35621 11.0858 2.99629 12.0356 3.83252 12.7789C4.65843 13.5223 5.67018 14.0385 6.73354 14.2862C7.80722 14.534 8.93252 14.4927 9.98556 14.1933C11.0386 13.8836 12.0194 13.3055 12.804 12.5105C13.2066 12.1079 13.5576 11.6536 13.8467 11.1581C12.04 11.5504 10.1198 11.2923 8.47827 10.4457C7.34264 9.85729 6.34123 9.0004 5.58758 7.94737C4.83394 6.90465 4.31775 5.67611 4.10094 4.39595C3.98738 3.73522 3.95641 3.04352 4.00803 2.37247Z" fill="#676879"/>
</svg>
