<svg width="16" height="17" viewBox="0 0 16 17" fill="none" xmlns="http://www.w3.org/2000/svg">
<path fill-rule="evenodd" clip-rule="evenodd" d="M8.43386 0.950023C9.59751 0.948034 10.7457 1.21622 11.7881 1.73346C12.8309 2.25089 13.7392 3.00341 14.4416 3.93173C15.1439 4.86005 15.6211 5.9388 15.8354 7.08297C16.0498 8.22713 15.9955 9.40545 15.6769 10.5251C15.3582 11.6447 14.7839 12.675 13.9992 13.5348C13.2144 14.3946 12.2408 15.0604 11.1549 15.4798C10.0689 15.8992 8.90048 16.0606 7.74154 15.9514C6.72148 15.8553 5.73334 15.5518 4.83716 15.0613L2.29488 16.2723C1.23215 16.7786 0.122648 15.6693 0.6287 14.6065L1.83941 12.0637C1.26482 11.0145 0.948271 9.84114 0.918922 8.6412C0.88616 7.30176 1.21245 5.97795 1.86393 4.80716C2.51541 3.63637 3.46834 2.66125 4.62383 1.983C5.77896 1.30497 7.09445 0.948314 8.43386 0.950023ZM8.43386 0.950023C8.43428 0.950024 8.43469 0.950024 8.43511 0.950025L8.43402 1.70002L8.43262 0.950025C8.43303 0.950025 8.43345 0.950024 8.43386 0.950023ZM11.1214 3.07713C10.2867 2.66295 9.36722 2.44828 8.43543 2.45002L8.43294 2.45002C7.3608 2.44848 6.30778 2.73388 5.38315 3.27662C4.45852 3.81935 3.69598 4.59964 3.17467 5.53651C2.65335 6.47338 2.39226 7.53269 2.41847 8.60452C2.44469 9.67635 2.75726 10.7216 3.32376 11.6319C3.45882 11.8489 3.47405 12.1198 3.36416 12.3506L2.28595 14.6151L4.54996 13.5366C4.78072 13.4267 5.05158 13.4418 5.26863 13.5768C6.05985 14.069 6.95456 14.3706 7.88225 14.458C8.80993 14.5454 9.74524 14.4162 10.6145 14.0805C11.4837 13.7448 12.2631 13.2119 12.8912 12.5236C13.5194 11.8354 13.9791 11.0107 14.2341 10.1145C14.4892 9.21825 14.5327 8.27505 14.3611 7.35919C14.1895 6.44334 13.8075 5.57984 13.2453 4.83676C12.6831 4.09368 11.9561 3.49131 11.1214 3.07713Z" fill="#676879"/>
</svg>
