<svg width="18" height="16" viewBox="0 0 18 16" fill="none" xmlns="http://www.w3.org/2000/svg">
<path fill-rule="evenodd" clip-rule="evenodd" d="M9 1.90449L7.30061 5.34943C7.20168 5.5491 7.05582 5.72182 6.87554 5.85278C6.69525 5.98374 6.4859 6.06904 6.26543 6.10138L2.46267 6.65796L5.21005 9.34309C5.21018 9.34322 5.20992 9.34297 5.21005 9.34309C5.37003 9.49898 5.48998 9.69189 5.55878 9.9044C5.6275 10.1167 5.64348 10.3425 5.60534 10.5624C5.60528 10.5628 5.60521 10.5632 5.60514 10.5636L4.95599 14.3534L8.3594 12.563C8.5569 12.4592 8.77687 12.4048 9 12.4048C9.22313 12.4048 9.44292 12.4591 9.64043 12.5629L13.0349 14.3477L12.3857 10.5579C12.3856 10.5574 12.3856 10.5569 12.3855 10.5565C12.3474 10.3367 12.3634 10.1109 12.4321 9.89869C12.5009 9.68618 12.6204 9.49364 12.7804 9.33776C12.7805 9.33763 12.7803 9.33789 12.7804 9.33776L15.5322 6.65463L11.7353 6.10149C11.5148 6.06915 11.3048 5.98374 11.1245 5.85278C10.9442 5.72182 10.7983 5.54911 10.6994 5.34943L9 1.90449ZM9.56228 1.34904L10.2344 1.01626C10.1205 0.786192 9.94457 0.592535 9.72645 0.457141C9.50834 0.321745 9.25672 0.25 9 0.25C8.74328 0.25 8.49166 0.321745 8.27355 0.457141C8.05543 0.592535 7.87949 0.786192 7.76558 1.01626L5.98466 4.6265L1.99539 5.21037L1.99209 5.21086C1.73857 5.24912 1.50078 5.35743 1.30552 5.52359C1.11027 5.68974 0.965301 5.90714 0.886971 6.15127C0.808641 6.39539 0.800061 6.65655 0.862197 6.90529C0.924217 7.15357 1.05423 7.37963 1.23762 7.55808C1.23796 7.55842 1.2383 7.55875 1.23865 7.55909L4.11621 10.3715L3.43615 14.3417C3.43605 14.3422 3.43594 14.3428 3.43584 14.3434C3.39159 14.5975 3.41961 14.8589 3.51674 15.0979C3.6141 15.3374 3.77694 15.5446 3.98662 15.6958C4.1963 15.8471 4.44434 15.9362 4.70233 15.953C4.95874 15.9697 5.21467 15.9142 5.44115 15.793L9.00001 13.9209L12.5498 15.7874C12.7763 15.9085 13.0322 15.964 13.2885 15.9473C13.5465 15.9305 13.7946 15.8414 14.0042 15.6901C14.2139 15.5389 14.3768 15.3317 14.4741 15.0922C14.5712 14.8532 14.5993 14.5918 14.555 14.3378C14.5549 14.3372 14.5548 14.3365 14.5547 14.3359L13.8747 10.3658L16.7568 7.55566C16.7571 7.55536 16.7574 7.55505 16.7577 7.55475C16.9412 7.37628 17.0712 7.15018 17.1332 6.90186C17.1954 6.65312 17.1868 6.39196 17.1085 6.14784C17.0301 5.90371 16.8852 5.68632 16.6899 5.52016C16.4946 5.354 16.2569 5.24569 16.0033 5.20743L12.0153 4.62645L10.2349 1.01724L9.56228 1.34904Z" fill="#676879"/>
</svg>
