<svg width="16" height="16" viewBox="0 0 16 16" fill="none" xmlns="http://www.w3.org/2000/svg">
<path fill-rule="evenodd" clip-rule="evenodd" d="M2.36386 2.36386C3.85865 0.869064 5.88603 0.0292969 7.99999 0.0292969C10.1139 0.0292969 12.1413 0.869064 13.6361 2.36386C15.1309 3.85865 15.9707 5.88603 15.9707 7.99999C15.9707 10.1139 15.1309 12.1413 13.6361 13.6361C12.1413 15.1309 10.1139 15.9707 7.99999 15.9707C5.88603 15.9707 3.85865 15.1309 2.36386 13.6361C0.869064 12.1413 0.0292969 10.1139 0.0292969 7.99999C0.0292969 5.88603 0.869064 3.85865 2.36386 2.36386ZM7.99999 1.5293C6.28385 1.5293 4.63801 2.21103 3.42452 3.42452C2.21103 4.63801 1.5293 6.28385 1.5293 7.99999C1.5293 9.71612 2.21103 11.362 3.42452 12.5755C4.63801 13.7889 6.28385 14.4707 7.99999 14.4707C9.71612 14.4707 11.362 13.7889 12.5755 12.5755C13.7889 11.362 14.4707 9.71612 14.4707 7.99999C14.4707 6.28385 13.7889 4.63801 12.5755 3.42452C11.362 2.21103 9.71612 1.5293 7.99999 1.5293ZM7.99999 7.25002C8.4142 7.25002 8.74999 7.58581 8.74999 8.00002V11.6104C8.74999 12.0246 8.4142 12.3604 7.99999 12.3604C7.58578 12.3604 7.24999 12.0246 7.24999 11.6104V8.00002C7.24999 7.58581 7.58578 7.25002 7.99999 7.25002ZM7.53969 4.09316C7.70575 3.9822 7.90098 3.92298 8.10069 3.92298C8.3685 3.92298 8.62534 4.02937 8.81471 4.21874C9.00408 4.40811 9.11046 4.66495 9.11046 4.93275C9.11046 5.13246 9.05124 5.32769 8.94029 5.49375C8.82933 5.65981 8.67163 5.78923 8.48712 5.86566C8.3026 5.94208 8.09957 5.96208 7.9037 5.92312C7.70783 5.88416 7.5279 5.78799 7.38668 5.64677C7.24546 5.50554 7.14929 5.32562 7.11033 5.12975C7.07136 4.93387 7.09136 4.73084 7.16779 4.54633C7.24421 4.36182 7.37363 4.20412 7.53969 4.09316Z" fill="#676879"/>
</svg>
