<svg width="17" height="17" viewBox="0 0 17 17" fill="none" xmlns="http://www.w3.org/2000/svg">
<path fill-rule="evenodd" clip-rule="evenodd" d="M14.9384 2.75694C15.4881 1.67802 14.3361 0.525956 13.2572 1.0757L10.7747 2.34056L8.80465 0.370489C7.94841 -0.485747 6.49672 0.253916 6.68615 1.44991L7.12199 4.20172L4.63956 5.46658C3.56064 6.01632 3.8155 7.62552 5.0115 7.81495L6.88363 8.11147L0.21967 14.7754C-0.0732233 15.0683 -0.0732233 15.5432 0.21967 15.8361C0.512563 16.129 0.987437 16.129 1.28033 15.8361L7.91402 9.20239L8.19915 11.0026C8.38857 12.1986 9.99777 12.4535 10.5475 11.3745L11.8124 8.8921L14.5642 9.32794C15.7602 9.51737 16.4998 8.06569 15.6436 7.20945L13.6735 5.23938L14.9384 2.75694ZM11.2939 3.75953L13.2526 2.76152L12.2546 4.72023C12.0087 5.20274 12.1015 5.78868 12.4844 6.1716L14.0389 7.72605L11.8676 7.38216C11.3328 7.29744 10.8042 7.56677 10.5583 8.04928L9.56032 10.008L9.21642 7.83674C9.13171 7.30187 8.71222 6.88239 8.17736 6.79767L6.0061 6.45378L7.96482 5.45577C8.44733 5.20992 8.71666 4.68133 8.63194 4.14646L8.28805 1.97521L9.84249 3.52966C10.2254 3.91258 10.8114 4.00538 11.2939 3.75953Z" fill="#676879"/>
</svg>
