<svg width="16" height="17" viewBox="0 0 16 17" fill="none" xmlns="http://www.w3.org/2000/svg">
<path fill-rule="evenodd" clip-rule="evenodd" d="M8 0.605957C7.661 0.605957 7.32868 0.700275 7.04023 0.878362C6.75177 1.05645 6.51855 1.31128 6.36665 1.61435L6.36633 1.61498L0.442768 13.4621L0.442688 13.4623C0.303534 13.7407 0.237844 14.0502 0.251851 14.3612C0.265857 14.6721 0.359097 14.9744 0.522721 15.2392C0.686345 15.5041 0.914927 15.7227 1.18678 15.8744C1.45863 16.0261 1.76473 16.1058 2.07604 16.106H2.07644H13.9236H13.924C14.2353 16.1058 14.5414 16.0261 14.8132 15.8744C15.0851 15.7227 15.3137 15.5041 15.4773 15.2392C15.6409 14.9744 15.7341 14.6721 15.7481 14.3612C15.7622 14.0502 15.6965 13.7407 15.5573 13.4623L15.5572 13.4621L9.63367 1.61498L9.63335 1.61435C9.48145 1.31128 9.24823 1.05645 8.95978 0.878362C8.67132 0.700275 8.339 0.605957 8 0.605957ZM7.82821 2.15471C7.87984 2.12284 7.93932 2.10596 8 2.10596C8.06068 2.10596 8.12016 2.12284 8.17179 2.15471C8.22335 2.18654 8.26504 2.23207 8.29223 2.28622L8.29235 2.28645L14.2155 14.1328L14.2156 14.1329C14.2404 14.1827 14.2522 14.2381 14.2497 14.2937C14.2472 14.3493 14.2305 14.4034 14.2012 14.4508C14.1719 14.4982 14.131 14.5374 14.0823 14.5645C14.0337 14.5917 13.9789 14.6059 13.9232 14.606H2.07684C2.02112 14.6059 1.96633 14.5917 1.91767 14.5645C1.86901 14.5374 1.8281 14.4982 1.79881 14.4508C1.76953 14.4034 1.75284 14.3493 1.75033 14.2937C1.74783 14.2381 1.75956 14.1827 1.78441 14.1329L1.78449 14.1328L7.70765 2.28645L7.70777 2.2862C7.73496 2.23206 7.77666 2.18654 7.82821 2.15471ZM8 5.45135C8.41421 5.45135 8.75 5.78714 8.75 6.20135V9.43239C8.75 9.8466 8.41421 10.1824 8 10.1824C7.58579 10.1824 7.25 9.8466 7.25 9.43239V6.20135C7.25 5.78714 7.58579 5.45135 8 5.45135ZM7.2303 11.8937C7.43444 11.6896 7.7113 11.5749 7.99999 11.5749C8.28868 11.5749 8.56555 11.6896 8.76968 11.8937C8.97382 12.0979 9.0885 12.3747 9.0885 12.6634C9.0885 12.9521 8.97382 13.229 8.76968 13.4331C8.56555 13.6372 8.28868 13.7519 7.99999 13.7519C7.7113 13.7519 7.43444 13.6372 7.2303 13.4331C7.02617 13.229 6.91149 12.9521 6.91149 12.6634C6.91149 12.3747 7.02617 12.0979 7.2303 11.8937ZM7.99999 12.6749C8.00304 12.6749 8.00596 12.6737 8.00812 12.6715C8.01028 12.6694 8.01149 12.6665 8.01149 12.6634C8.01149 12.6604 8.01028 12.6574 8.00812 12.6553C8.00596 12.6531 8.00304 12.6519 7.99999 12.6519C7.99695 12.6519 7.99402 12.6531 7.99187 12.6553C7.98971 12.6574 7.9885 12.6604 7.9885 12.6634C7.9885 12.6665 7.98971 12.6694 7.99187 12.6715C7.99402 12.6737 7.99695 12.6749 7.99999 12.6749Z" fill="#0085FF"/>
</svg>
