<svg width="12" height="13" viewBox="0 0 12 13" fill="none" xmlns="http://www.w3.org/2000/svg">
<path fill-rule="evenodd" clip-rule="evenodd" d="M6 5.81135L8.0455 3.76585C8.26865 3.5427 8.63046 3.5427 8.85362 3.76585C9.07678 3.98901 9.07678 4.35082 8.85362 4.57398L6.80812 6.61947L8.80323 8.61458C9.02639 8.83774 9.02639 9.19955 8.80323 9.42271C8.58007 9.64586 8.21826 9.64586 7.99511 9.42271L6 7.4276L4.00489 9.42271C3.78173 9.64586 3.41992 9.64586 3.19676 9.42271C2.97361 9.19955 2.97361 8.83774 3.19676 8.61459L5.19188 6.61947L3.14638 4.57398C2.92322 4.35082 2.92322 3.98901 3.14638 3.76585C3.36954 3.5427 3.73134 3.5427 3.9545 3.76585L6 5.81135Z" fill="#676879"/>
</svg>
