<svg width="15" height="14" viewBox="0 0 15 14" fill="none" xmlns="http://www.w3.org/2000/svg">
<path fill-rule="evenodd" clip-rule="evenodd" d="M11.1224 1.39616C11.1223 1.39622 11.1224 1.39611 11.1224 1.39616L3.20801 9.31899L2.33693 12.4153L5.43722 11.5463L13.3516 3.6225C13.4153 3.55882 13.4516 3.47195 13.4516 3.3819C13.4516 3.29193 13.4159 3.20565 13.3523 3.14198C13.3522 3.14192 13.3523 3.14204 13.3523 3.14198L11.6033 1.39622C11.5395 1.33255 11.453 1.29673 11.3628 1.29673C11.2727 1.29673 11.1861 1.33259 11.1224 1.39616ZM10.2044 0.4791C10.5117 0.172332 10.9284 0 11.3628 0C11.7972 0 12.2139 0.17231 12.5211 0.479039C12.5211 0.479059 12.5211 0.479019 12.5211 0.479039L14.2701 2.2248C14.5772 2.53166 14.75 2.948 14.75 3.3819C14.75 3.8158 14.5774 4.23193 14.2703 4.53879L6.23619 12.5824C6.15736 12.6614 6.05948 12.7187 5.95202 12.7488L1.57464 13.9759C1.34866 14.0392 1.10604 13.9758 0.940096 13.81C0.774153 13.6442 0.710728 13.4019 0.774216 13.1762L2.00384 8.80541C2.03387 8.69865 2.09082 8.60137 2.16925 8.52286L10.2044 0.4791Z" fill="#676879"/>
</svg>
