<svg width="16" height="16" viewBox="0 0 16 16" fill="none" xmlns="http://www.w3.org/2000/svg">
<path fill-rule="evenodd" clip-rule="evenodd" d="M8 0.105957C7.661 0.105957 7.32868 0.200275 7.04023 0.378362C6.75177 0.556448 6.51855 0.811278 6.36665 1.11435L6.36633 1.11498L0.442768 12.9621L0.442688 12.9623C0.303534 13.2407 0.237844 13.5502 0.251851 13.8612C0.265857 14.1721 0.359097 14.4744 0.522721 14.7392C0.686345 15.0041 0.914927 15.2227 1.18678 15.3744C1.45863 15.5261 1.76473 15.6058 2.07604 15.606H2.07644H13.9236H13.924C14.2353 15.6058 14.5414 15.5261 14.8132 15.3744C15.0851 15.2227 15.3137 15.0041 15.4773 14.7392C15.6409 14.4744 15.7341 14.1721 15.7481 13.8612C15.7622 13.5502 15.6965 13.2407 15.5573 12.9623L15.5572 12.9621L9.63367 1.11498L9.63335 1.11435C9.48145 0.811278 9.24823 0.556448 8.95978 0.378362C8.67132 0.200275 8.339 0.105957 8 0.105957ZM7.82821 1.65471C7.87984 1.62284 7.93932 1.60596 8 1.60596C8.06068 1.60596 8.12016 1.62284 8.17179 1.65471C8.22335 1.68654 8.26504 1.73207 8.29223 1.78622L8.29235 1.78645L14.2155 13.6328L14.2156 13.6329C14.2404 13.6827 14.2522 13.7381 14.2497 13.7937C14.2472 13.8493 14.2305 13.9034 14.2012 13.9508C14.1719 13.9982 14.131 14.0374 14.0823 14.0645C14.0337 14.0917 13.9789 14.1059 13.9232 14.106H2.07684C2.02112 14.1059 1.96633 14.0917 1.91767 14.0645C1.86901 14.0374 1.8281 13.9982 1.79881 13.9508C1.76953 13.9034 1.75284 13.8493 1.75033 13.7937C1.74783 13.7381 1.75956 13.6827 1.78441 13.6329L1.78449 13.6328L7.70765 1.78645L7.70777 1.7862C7.73496 1.73206 7.77666 1.68654 7.82821 1.65471ZM8 4.95135C8.41421 4.95135 8.75 5.28714 8.75 5.70135V8.93239C8.75 9.3466 8.41421 9.68239 8 9.68239C7.58579 9.68239 7.25 9.3466 7.25 8.93239V5.70135C7.25 5.28714 7.58579 4.95135 8 4.95135ZM7.2303 11.3937C7.43444 11.1896 7.7113 11.0749 7.99999 11.0749C8.28868 11.0749 8.56555 11.1896 8.76968 11.3937C8.97382 11.5979 9.0885 11.8747 9.0885 12.1634C9.0885 12.4521 8.97382 12.729 8.76968 12.9331C8.56555 13.1372 8.28868 13.2519 7.99999 13.2519C7.7113 13.2519 7.43444 13.1372 7.2303 12.9331C7.02617 12.729 6.91149 12.4521 6.91149 12.1634C6.91149 11.8747 7.02617 11.5979 7.2303 11.3937ZM7.99999 12.1749C8.00304 12.1749 8.00596 12.1737 8.00812 12.1715C8.01028 12.1694 8.01149 12.1665 8.01149 12.1634C8.01149 12.1604 8.01028 12.1574 8.00812 12.1553C8.00596 12.1531 8.00304 12.1519 7.99999 12.1519C7.99695 12.1519 7.99402 12.1531 7.99187 12.1553C7.98971 12.1574 7.9885 12.1604 7.9885 12.1634C7.9885 12.1665 7.98971 12.1694 7.99187 12.1715C7.99402 12.1737 7.99695 12.1749 7.99999 12.1749Z" fill="white"/>
</svg>
